# xmcd CD database file generated by Grip 3.0.1
# 
# Track frame offsets:
#       150
#       21881
#       44395
#       64419
#       85723
#       103329
#       127615
#       146994
#       166810
#       190234
#       207708
#       230234
#       249918
#       273472
#       296339
# 
# Disc length: 4222 seconds
# 
# Revision: 2
# Processed by: cddbd v1.4PL0 Copyright (c) Steve Scherf et al.
# Submitted via: Grip 3.0.1
# 
DISCID=e1107c0f
DTITLE=mylène_farmer - les_mots_disc_2
DYEAR=1900
DGENRE=Blues
TTITLE0=Les_mots
TTITLE1=California
TTITLE2=XXL
TTITLE3=L'instant_X
TTITLE4=Comme_j_ai_mal
TTITLE5=Rêver
TTITLE6=C_est_une_belle_journée
TTITLE7=L_âme_stram_gra
TTITLE8=Je_te_rends_ton_amour
TTITLE9=effets_secondaires
TTITLE10=Souviens_toi_du_jour
TTITLE11=Optimistique_moi
TTITLE12=Innamoramento
TTITLE13=L_histoire_d_une_fee
TTITLE14=Pardonne_moi
EXTD=
EXTT0=
EXTT1=
EXTT2=
EXTT3=
EXTT4=
EXTT5=
EXTT6=
EXTT7=
EXTT8=
EXTT9=
EXTT10=
EXTT11=
EXTT12=
EXTT13=
EXTT14=
PLAYORDER=
